<svg height="184.1mm" viewBox="0 0 1440.27 521.86" width="508.09mm" xmlns="http://www.w3.org/2000/svg" xmlns:xlink="http://www.w3.org/1999/xlink"><linearGradient id="a" gradientTransform="matrix(1440 0 0 -370 -595745.73 265367)" gradientUnits="userSpaceOnUse" x1="414.04" x2="414" y1="716.2" y2="716.27"><stop offset="0" stop-color="#0089ab" stop-opacity=".27"/><stop offset="1" stop-color="#31a4d9" stop-opacity=".45"/></linearGradient><linearGradient id="b" gradientUnits="userSpaceOnUse" x1="717.83" x2="697.87" y1="453.88" y2="582.58"><stop offset="0" stop-color="#007f9f"/><stop offset="1" stop-color="#b4e7ff"/></linearGradient><g transform="translate(0 -.14)"><path d="m.27 199.43q84.81 36 330.1-34.38c245.29-70.38 378 167.5 663.05 153.49q285.09-14 446.85 90.53v112.93h-1440z" fill="url(#a)" fill-rule="evenodd"/><path d="m686.64 90.27c-99.56-74.13-190 52.08-289 41.16s-158.33-131.29-338.06-131.29a560.07 560.07 0 0 0 -59.31 2.75v381.25h674.73q188.28 89 188.27-1c-.01-90.01-77.07-218.74-176.63-292.87z" fill="#a5c5e6" fill-opacity=".3" fill-rule="evenodd"/><path d="m1440 204.63q-98.28-27.88-192.52-27.9c-134.3 0-304.57 104.56-571 96.57s-298.75 155.41-603.74 99.08q-40.9-7.54-72.74-14.57v164.19h1440z" fill="url(#b)"/></g></svg>