<svg height="370" viewBox="0 0 1440 370" width="1440" xmlns="http://www.w3.org/2000/svg" xmlns:xlink="http://www.w3.org/1999/xlink"><linearGradient id="a" x1="100%" x2="0%" y1="51.35373%" y2="51.35373%"><stop offset="0" stop-color="#083a4d"/><stop offset="1" stop-color="#0b2b36"/></linearGradient><g fill="none" fill-rule="evenodd"><path d="m0 111.183594c101.758286-53.4848978 234.087831-82.0468774 396.988636-85.685939 244.351208-5.4585925 325.144177 63.04922 525.816051 31.45547 133.781253-21.0625 306.179683-31.5476567 517.195313-31.45547v344.175781h-1440z" fill="url(#a)"/><g fill="#000" fill-opacity=".348042"><path d="m0 125.738281c80.6199954 16.991976 210.030152 23.745882 388.230469 20.261719 267.300475-5.226244 455.169172-58.8622351 649.214841-65.3359375 129.36378-4.3158016 263.54868 3.3144067 402.55469 22.8906255v266.118748h-1440z"/><path d="m0 1.54296875c116.367188-7.875 239.395833 22.22656255 369.085938 90.30468755 194.535156 102.1171877 543.726562 76.3320307 715.265622 15.3984377 114.35938-40.6223961 232.90886-58.7877607 355.64844-54.496094v316.923436h-1440z"/></g></g></svg>