<svg height="196" viewBox="0 0 1440 196" width="1440" xmlns="http://www.w3.org/2000/svg" xmlns:xlink="http://www.w3.org/1999/xlink"><linearGradient id="a" x1="53.826123%" x2="44.498018%" y1="49.045842%" y2="52.396495%"><stop offset="0" stop-color="#007f9f"/><stop offset="1" stop-color="#b4e7ff"/></linearGradient><linearGradient id="b" x1="41.441819%" x2="36.932048%" y1="51.434632%" y2="48.744674%"><stop offset="0" stop-color="#0089ab" stop-opacity=".268794"/><stop offset="1" stop-color="#31a4d9" stop-opacity=".450612"/></linearGradient><g fill="none" fill-rule="evenodd" transform="translate(-176)"><path d="m53.4492839 41.1622807c-63.5889486-27.4415205 14.2098434-41.1622807 233.3963761-41.1622807 328.779799 0 437.347082 63.5213837 618.378982 69.2856186 181.031898 5.7642348 346.567178-60.84207384 528.683738-21.7205389 182.11655 39.121535 323.09162 107.0523133 323.09162 154.5522733 0 31.66664-114.79819 31.842547-344.39457.527721h-1359.1561461z" fill="#a5c5e6" fill-opacity=".3"/><path d="m78.254868 160.298577c-132.320882 11.368341-96.8360773 28.957646 106.454414 52.767914 304.935737 35.715402 337.217747-67.901828 603.622377-62.832105 266.404631 5.069723 436.645461-61.234386 570.922001-61.234386 89.5177 0 181.76648 11.96898 276.74634 35.906939v190.093061h-1557.745132z" fill="url(#a)"/><path d="m112 94.8966063c56.540924 15.6306227 166.575695 8.1652007 330.104311-22.3962663 245.292924-45.8422004 377.954493 109.102659 663.044529 99.974575 190.06002-6.085389 339.01041 13.570714 446.85116 58.96831v73.556775h-1440z" fill="url(#b)"/></g></svg>